<svg width="32" height="24" viewBox="0 0 32 24" fill="none" xmlns="http://www.w3.org/2000/svg">
<path d="M6.4 0L11.9426 3.2V9.6L6.4 12.8L0.857438 9.6V3.2L6.4 0Z" fill="#0C3293"/>
<path d="M19.2 0L24.7425 3.2V9.6L19.2 12.8L13.6574 9.6V3.2L19.2 0Z" fill="#0C3293"/>
<path d="M12.8 10.624L18.3426 13.824V20.224L12.8 23.424L7.25746 20.224V13.824L12.8 10.624Z" fill="#0C3293"/>
<path d="M25.6 10.624L31.1426 13.824V20.224L25.6 23.424L20.0574 20.224V13.824L25.6 10.624Z" fill="#0C3293"/>
<path d="M17.0604 4.99915V4.00462H21.3428V4.99915H19.8065V9.07129H18.5992V4.99915H17.0604Z" fill="white"/>
<path d="M14.6137 14.7576V15.7521H12.3773V19.8242H11.1527V14.7576H14.6137Z" fill="white"/>
<path d="M4.52474 9.2002V4.13353H7.9858V5.12806H5.74934V5.91973H6.41731C6.82964 5.91973 7.18836 5.98652 7.49349 6.12012C7.80026 6.25371 8.03693 6.44173 8.20351 6.68418C8.37174 6.92663 8.45586 7.21196 8.45586 7.54017C8.45586 7.86838 8.37174 8.15701 8.20351 8.40605C8.03693 8.6551 7.80026 8.84972 7.49349 8.98991C7.18836 9.1301 6.82964 9.2002 6.41731 9.2002H4.52474ZM5.74934 8.2304H6.41731C6.59544 8.2304 6.74553 8.19989 6.86757 8.13887C6.99127 8.07619 7.08446 7.99208 7.14713 7.88652C7.21145 7.77932 7.24362 7.66057 7.24362 7.53027C7.24362 7.34225 7.1727 7.18557 7.03086 7.06022C6.88901 6.93322 6.6845 6.86973 6.41731 6.86973H5.74934V8.2304Z" fill="white"/>
<path d="M27.7493 14.7576V19.8242H26.542V15.7372H24.6618V19.8242H23.4545V14.7576H27.7493Z" fill="white"/>
</svg>
